<svg width="99" height="100" viewBox="0 0 99 100" fill="none" xmlns="http://www.w3.org/2000/svg">
<path d="M49.157 1.23831e-08C54.5487 -0.000171405 59.7304 1.77933 63.6125 4.96431C67.4946 8.14928 69.7746 12.4916 69.973 17.078L69.9863 17.7333L92.4819 17.7305C93.9866 17.7311 95.4329 18.2267 96.5184 19.1138C97.6039 20.0009 98.2445 21.2108 98.3065 22.4906C98.3685 23.7704 97.8469 25.0211 96.8509 25.9812C95.8548 26.9413 94.4614 27.5366 92.9618 27.6426L92.4819 27.6596H88.5927L83.1704 88.8511C82.9014 91.883 81.2967 94.7164 78.6776 96.7839C76.0585 98.8513 72.6184 100 69.0465 100H29.2676C25.6957 100 22.2556 98.8513 19.6365 96.7839C17.0174 94.7164 15.4126 91.883 15.1437 88.8511L9.7181 27.6596H5.83219C4.36798 27.6595 2.95739 27.1906 1.8806 26.346C0.803823 25.5014 0.139641 24.3429 0.0199946 23.1007L0 22.695C0.000123532 21.4487 0.550996 20.2479 1.54319 19.3313C2.53539 18.4147 3.89631 17.8494 5.35562 17.7475L5.83219 17.7305H28.3278C28.3278 8.37447 36.8428 0.709219 47.6373 0.0453895L48.3939 0.0113481L49.157 1.23831e-08ZM61.6546 36.8794C60.6233 36.879 59.6284 37.2043 58.8626 37.7923C58.0967 38.3802 57.6143 39.1891 57.5087 40.0624L57.4887 40.4255V74.4681L57.5087 74.8312C57.61 75.7074 58.0904 76.5202 58.8567 77.1115C59.623 77.7028 60.6203 78.0303 61.6546 78.0303C62.6889 78.0303 63.6862 77.7028 64.4524 77.1115C65.2187 76.5202 65.6992 75.7074 65.8004 74.8312L65.8204 74.4681V40.4255L65.8004 40.0624C65.6948 39.1891 65.2124 38.3802 64.4466 37.7923C63.6808 37.2043 62.6859 36.879 61.6546 36.8794ZM36.6595 36.8794C35.6282 36.879 34.6333 37.2043 33.8675 37.7923C33.1016 38.3802 32.6192 39.1891 32.5136 40.0624L32.4936 40.4255V74.4681L32.5136 74.8312C32.6148 75.7074 33.0953 76.5202 33.8616 77.1115C34.6279 77.7028 35.6252 78.0303 36.6595 78.0303C37.6938 78.0303 38.6911 77.7028 39.4573 77.1115C40.2236 76.5202 40.7041 75.7074 40.8053 74.8312L40.8253 74.4681V40.4255L40.8053 40.0624C40.6997 39.1891 40.2173 38.3802 39.4515 37.7923C38.6856 37.2043 37.6908 36.879 36.6595 36.8794ZM49.7169 9.94326L49.157 9.92908C46.8232 9.92898 44.5772 10.6868 42.8773 12.0479C41.1773 13.4091 40.1514 15.271 40.0088 17.2539L39.9922 17.7333L58.3219 17.7305C58.322 15.7439 57.4318 13.832 55.8328 12.385C54.2337 10.9379 52.0464 10.0646 49.7169 9.94326Z" fill="#7D90B2"/>
</svg>
