<svg width="100" height="100" viewBox="0 0 100 100" fill="none" xmlns="http://www.w3.org/2000/svg">
<path d="M79.1667 83.3333H20.8333C19.7283 83.3333 18.6685 83.7723 17.8871 84.5537C17.1057 85.3351 16.6667 86.3949 16.6667 87.5C16.6667 88.605 17.1057 89.6649 17.8871 90.4463C18.6685 91.2277 19.7283 91.6666 20.8333 91.6666H79.1667C80.2717 91.6666 81.3316 91.2277 82.113 90.4463C82.8944 89.6649 83.3334 88.605 83.3334 87.5C83.3334 86.3949 82.8944 85.3351 82.113 84.5537C81.3316 83.7723 80.2717 83.3333 79.1667 83.3333ZM20.8333 75H21.2083L38.5833 73.4166C40.4867 73.227 42.2668 72.3884 43.625 71.0416L81.125 33.5416C82.5805 32.004 83.3671 29.9521 83.3124 27.8355C83.2578 25.719 82.3663 23.7104 80.8333 22.25L69.4167 10.8333C67.9266 9.43371 65.9741 8.63064 63.9306 8.57686C61.887 8.52308 59.8949 9.22235 58.3333 10.5416L20.8333 48.0416C19.4865 49.3998 18.648 51.18 18.4583 53.0833L16.6667 70.4583C16.6106 71.0686 16.6897 71.6837 16.8986 72.2599C17.1075 72.8361 17.4409 73.3591 17.875 73.7916C18.2643 74.1778 18.7261 74.4833 19.2337 74.6907C19.7414 74.898 20.285 75.0031 20.8333 75ZM63.625 16.6666L75 28.0416L66.6667 36.1666L55.5 25L63.625 16.6666Z" fill="#7D90B2"/>
</svg>
