<svg width="15" height="14" viewBox="0 0 15 14" fill="none" xmlns="http://www.w3.org/2000/svg">
<path d="M7.5 3.5C7.66576 3.5 7.82473 3.56146 7.94194 3.67085C8.05915 3.78025 8.125 3.92862 8.125 4.08333V6.41667H10.625C10.7908 6.41667 10.9497 6.47813 11.0669 6.58752C11.1842 6.69692 11.25 6.84529 11.25 7C11.25 7.15471 11.1842 7.30308 11.0669 7.41248C10.9497 7.52188 10.7908 7.58333 10.625 7.58333H8.125V9.91667C8.125 10.0714 8.05915 10.2198 7.94194 10.3291C7.82473 10.4385 7.66576 10.5 7.5 10.5C7.33424 10.5 7.17527 10.4385 7.05806 10.3291C6.94085 10.2198 6.875 10.0714 6.875 9.91667V7.58333H4.375C4.20924 7.58333 4.05027 7.52188 3.93306 7.41248C3.81585 7.30308 3.75 7.15471 3.75 7C3.75 6.84529 3.81585 6.69692 3.93306 6.58752C4.05027 6.47813 4.20924 6.41667 4.375 6.41667H6.875V4.08333C6.875 3.92862 6.94085 3.78025 7.05806 3.67085C7.17527 3.56146 7.33424 3.5 7.5 3.5Z" fill="white"/>
<path d="M0 7C-1.46764e-08 6.08075 0.193993 5.1705 0.570903 4.32122C0.947814 3.47194 1.50026 2.70026 2.1967 2.05025C2.89314 1.40024 3.71993 0.884626 4.62987 0.532843C5.53982 0.18106 6.51509 0 7.5 0C8.48491 0 9.46018 0.18106 10.3701 0.532843C11.2801 0.884626 12.1069 1.40024 12.8033 2.05025C13.4997 2.70026 14.0522 3.47194 14.4291 4.32122C14.806 5.1705 15 6.08075 15 7C15 8.85651 14.2098 10.637 12.8033 11.9497C11.3968 13.2625 9.48912 14 7.5 14C5.51088 14 3.60322 13.2625 2.1967 11.9497C0.790176 10.637 2.96403e-08 8.85651 0 7ZM7.5 1.16667C5.8424 1.16667 4.25269 1.78125 3.08058 2.87521C1.90848 3.96917 1.25 5.4529 1.25 7C1.25 8.5471 1.90848 10.0308 3.08058 11.1248C4.25269 12.2188 5.8424 12.8333 7.5 12.8333C9.1576 12.8333 10.7473 12.2188 11.9194 11.1248C13.0915 10.0308 13.75 8.5471 13.75 7C13.75 5.4529 13.0915 3.96917 11.9194 2.87521C10.7473 1.78125 9.1576 1.16667 7.5 1.16667Z" fill="white"/>
</svg>
